#!OML:ASF E:/inclinewalkrobotboard/Project1/Captureday1/Session1/subject1.ASF
:FULLY-SPECIFIED
:DEGREES
163
root 0 0 0 0.45764800532866134 -3.1451885176627576 1.275253316327562
lowerback 11.500340122724104 0.6218327645570123 -0.5588151615917915
upperback -2.773285669802309 0.781396371286444 0.01904995521747943
thorax -9.441972137034757 0.3488296010168963 0.21701195691978714
lowerneck -9.810309970081358 0.2602416805826273 2.3672158703175183
upperneck 18.542472185030825 1.1281332443617496 -5.493332392457435
head 7.445585541576204 0.2720180088237407 -2.085117729722474
rclavicle 2.1027351369132514E-16 -7.383436811648588E-16
rhumerus 2.5484895266021255 3.4149315025549 -59.584334870623834
rradius 56.16609469458812
rwrist 17.526384131863747
rhand -28.389610384243873 -27.494264244607496
rfingers 7.125019999999986
rthumb -1.7579781429214743 -57.73240358190788
lclavicle -8.356816078941105E-16 -1.777227002099322E-16
lhumerus 3.0227616149029686 -9.585411222533441 59.07166057746922
lradius 55.73431693616842
lwrist -11.248377316219031
lhand -38.84428142290757 -35.906557665667385
lfingers 7.125019999999983
lthumb -11.786211866566855 -6.210491603018362
rfemur -24.994714794746493 1.871358606928463 20.170371848875483
rtibia 47.39430020684809
rfoot -7.443475102702909 -9.814881251633372
rtoes -1.4076935829182142
lfemur -14.162257122900247 -0.540404520619262 -17.590426934690814
ltibia 40.90129892391837
lfoot -6.608711303842779 -4.341244483074203
ltoes -6.039942927620534
164
root 0 0 0 0.45780452509730774 -3.144543783207701 1.2798115919054769
lowerback 11.502094997839759 0.620684188357161 -0.5614377359375652
upperback -2.7746564648383494 0.7793977131630786 0.018327358346632572
thorax -9.444618179691044 0.34791961521103076 0.2186954481491582
lowerneck -9.80663003388816 0.26132963307589163 2.3692039433193073
upperneck 18.546928179724134 1.1302634943348022 -5.497155901323186
head 7.446683019354666 0.2728459847680458 -2.086583666235378
rclavicle 2.11007934436451E-16 -7.391892756630828E-16
rhumerus 2.5546302064838464 3.418719435851523 -59.58011251695635
rradius 56.17161095550064
rwrist 17.52960819678541
rhand -28.391649885297735 -27.504386253903167
rfingers 7.125019999999986
rthumb -1.760091412472633 -57.74273037405729
lclavicle -8.360598144826383E-16 -1.7869304498837088E-16
lhumerus 3.0224727997414327 -9.584890241326697 59.071606406182106
lradius 55.73379031351543
lwrist -11.248707859787038
lhand -38.84413071316666 -35.90714950695441
lfingers 7.125019999999983
lthumb -11.786122509084105 -6.21129782657713
rfemur -25.107765294798998 1.8341887325239568 20.112095452792705
rtibia 47.59249186482522
rfoot -7.353139906893238 -9.815918232079113
rtoes -1.3835136721175831
lfemur -14.39967136112173 -0.4176289461431273 -17.42220493667387
ltibia 41.78628776292983
lfoot -6.282941637519844 -4.614356694781286
ltoes -6.165184658020755
165
root 0 0 0 0.45921936649186534 -3.1497079648207826 1.276258814353857
lowerback 11.503749551197902 0.6231865106210492 -0.5550464871869424
upperback -2.7768767428194088 0.7834950292463951 0.017505682335290373
thorax -9.448022620884254 0.34975602019199886 0.2140421096860332
lowerneck -9.802187822742617 0.2625792265708724 2.372520663029214
upperneck 18.55025480632976 1.1322568845824668 -5.501769463410658
head 7.447080002092357 0.27359238228402094 -2.088501557167704
rclavicle 2.1174438237579244E-16 -7.383597441973206E-16
rhumerus 2.5641103484119085 3.425199510590545 -59.57451015362402
rradius 56.17995740360462
rwrist 17.533557744213493
rhand -28.394698311012032 -27.518782233660755
rfingers 7.125019999999986
rthumb -1.7628921905909412 -57.75703032595549
lclavicle -8.346566616327597E-16 -1.766924697035271E-16
lhumerus 3.042675034810575 -9.590455786315616 59.05775495861293
lradius 55.749001676172185
lwrist -11.258446551282296
lhand -38.850750558901055 -35.94058006058503
lfingers 7.125019999999983
lthumb -11.792353580696322 -6.2468762581938435
rfemur -25.24175270304456 1.7958589302775512 20.044991279512953
rtibia 47.765636614015754
rfoot -7.286164052982873 -9.83108311810373
rtoes -1.3852956864908494
lfemur -14.792291076837813 -0.2874520723068881 -17.19095270998791
ltibia 42.72546030943545
lfoot -5.941959007692379 -4.862679928777887
ltoes -6.278268279156952
166
root 0 0 0 0.46028383628831193 -3.1530239753910845 1.274978107345438
lowerback 11.504994986365029 0.6248370717449145 -0.5515311403539619
upperback -2.7786497557789502 0.7860871137156668 0.016633584934617085
thorax -9.450715085383504 0.3509072659442412 0.21112639232388042
lowerneck -9.798304517570928 0.26363250907463476 2.3750762163414048
upperneck 18.55256330505171 1.1341799763138964 -5.505611955638737
head 7.4472126574513915 0.2743279447853513 -2.0899914816928185
rclavicle 2.1183877068197443E-16 -7.397529283435654E-16
rhumerus 2.5716896513556193 3.430470850626527 -59.570224866970115
rradius 56.187013544545195
rwrist 17.536814437878284
rhand -28.397167239846283 -27.530463296125507
rfingers 7.125019999999986
rthumb -1.7652750078621517 -57.76933979315743
lclavicle -8.363449594848594E-16 -1.7725428744392874E-16
lhumerus 3.057958195907421 -9.594776147423122 59.04695066727554
lradius 55.76132485506893
lwrist -11.265409393792982
lhand -38.855935235585456 -35.9661184497287
lfingers 7.125019999999983
lthumb -11.797380093119168 -6.272874870005992
rfemur -25.408286414438884 1.7524278539768965 19.962423365721296
rtibia 47.94143202042474
rfoot -7.225737246430105 -9.857356961237395
rtoes -1.4058603105863785
lfemur -15.008205765125897 -0.2104785453289575 -17.063148748738982
ltibia 43.2704883355954
lfoot -5.753996860308903 -5.008489047097039
ltoes -6.347717183158992
167
root 0 0 0 0.4614693464794808 -3.155070629894932 1.2744565409355924
lowerback 11.505741902850678 0.6258776835110542 -0.5495404362873969
upperback -2.780145643949651 0.7877316359374973 0.01594250079459103
thorax -9.452812371348845 0.3516354694511105 0.20918598595673155
lowerneck -9.795200651575005 0.2647472400782691 2.377136739638227
upperneck 18.553361875848957 1.1359438497106606 -5.5085611702754465
head 7.446919293943955 0.2750495960075343 -2.0910892739125537
rclavicle 2.123935909110261E-16 -7.393507555424353E-16
rhumerus 2.57899178562538 3.4357427376326015 -59.56622602159233
rradius 56.193685968429946
rwrist 17.53955316472419
rhand -28.39951189350271 -27.541332540465692
rfingers 7.125019999999986
rthumb -1.7673769992533153 -57.78040941399115
lclavicle -8.362520350743066E-16 -1.7595727857459343E-16
lhumerus 3.0756616966051133 -9.599922072298064 59.03477891720553
lradius 55.7751647483271
lwrist -11.273504660195501
lhand -38.861845373592374 -35.99500199872199
lfingers 7.125019999999983
lthumb -11.802992432499945 -6.30301255698712
rfemur -25.541538171125133 1.7204252879761504 19.897308917819867
rtibia 48.05559779710808
rfoot -7.192183332347086 -9.883593466391304
rtoes -1.433855727976678
lfemur -15.13432595136395 -0.17941274174514632 -16.998411688560807
ltibia 43.48638441798574
lfoot -5.685959631759536 -5.053112876467258
ltoes -6.370596389947553
168
root 0 0 0 0.46230021613036243 -3.156651980308892 1.2735539258853066
lowerback 11.506095350345515 0.6267562172229525 -0.5477821468145004
upperback -2.781071796241409 0.7891547458047158 0.015531969643616916
thorax -9.454029963502787 0.3522639065917646 0.2075857931288162
lowerneck -9.793408724009556 0.2654167909944456 2.378392512454383
upperneck 18.553521715401633 1.1369529928770037 -5.510242935841963
head 7.446617638810247 0.27546158282614175 -2.091719187788867
rclavicle 2.1277447650943E-16 -7.387588153448373E-16
rhumerus 2.584665698852234 3.4399632234965605 -59.563312980530995
rradius 56.198840349536916
rwrist 17.541499166256948
rhand -28.40132807423999 -27.549597342109518
rfingers 7.125019999999986
rthumb -1.7689418087449278 -57.78876856893109
lclavicle -8.35966151522828E-16 -1.746105012296214E-16
lhumerus 3.0901683218538274 -9.604237484493389 59.02485850456806
lradius 55.786622348583236
lwrist -11.2800290397763
lhand -38.866717239573916 -36.018383124713715
lfingers 7.125019999999983
lthumb -11.807594572189169 -6.327324919327566
rfemur -25.614254692164966 1.7055769803508691 19.862564441563958
rtibia 48.09173369829492
rfoot -7.189780521309563 -9.903324763946621
rtoes -1.4615263634508975
lfemur -15.170097423948151 -0.1852803334948374 -16.990947582227605
ltibia 43.43737915013819
lfoot -5.71287262691971 -5.0221488098220135
ltoes -6.358054528339124
169
root 0 0 0 0.46260485418143027 -3.161030275744575 1.2657300456200653
lowerback 11.50537209430098 0.6297291012715411 -0.5400660075465246
upperback -2.7808123435182956 0.794195622163186 0.015918189194505494
thorax -9.453133742054867 0.35450012622925664 0.2025792373476849
lowerneck -9.794894813989925 0.2646432396293501 2.378098166403219
upperneck 18.551777027848654 1.1354955128770632 -5.508806399304091
head 7.446117328056243 0.2748142986492399 -2.0913373606319965
rclavicle 2.1437651865490102E-16 -7.365101828858923E-16
rhumerus 2.5861504621141123 3.4418990036169532 -59.563650163649235
rradius 56.20026167182636
rwrist 17.54066723493623
rhand -28.401694812708957 -27.5506786832016
rfingers 7.125019999999986
rthumb -1.76885927972992 -57.78993671213903
lclavicle -8.363092913623889E-16 -1.7236881092572827E-16
lhumerus 3.100798153309288 -9.607929815572113 59.01775537347363
lradius 55.79566690141162
lwrist -11.283989644221153
lhand -38.87048740948004 -36.033874091581694
lfingers 7.125019999999983
lthumb -11.811200841967871 -6.343327846467773
rfemur -25.49103347721438 1.7443785804183642 19.92567601524233
rtibia 47.89259606506566
rfoot -7.279380003048985 -9.898846997396458
rtoes -1.4798995116358793
lfemur -15.077633024606254 -0.27240866080596415 -17.079903516352594
ltibia 42.81421362003138
lfoot -5.938681586907409 -4.8099088659027185
ltoes -6.258609433082055
170
root 0 0 0 0.46185516664275816 -3.165998997942698 1.256781710371632
lowerback 11.504775373801769 0.6329684340435873 -0.5314489483645389
upperback -2.779580346795161 0.7996549013636647 0.016619847136756016
thorax -9.451393837416022 0.3569712457592752 0.19739235362368346
lowerneck -9.798207618111658 0.2628341791037596 2.376788880729831
upperneck 18.551627000522114 1.1325846518444496 -5.50604416951712
head 7.446549127477288 0.27350565110639335 -2.0905705081597947
rclavicle 2.1194204063187155E-16 -7.386496002064508E-16
rhumerus 2.5868237036691575 3.4420916591135917 -59.56283746430372
rradius 56.20083176922198
rwrist 17.541443858052833
rhand -28.40202710398018 -27.552140734993205
rfingers 7.125019999999986
rthumb -1.76941070876431 -57.79102624920208
lclavicle -8.361815791858977E-16 -1.7323960022763454E-16
lhumerus 3.0911233139750323 -9.605191236288055 59.02391309255199
lradius 55.78831762285277
lwrist -11.279808733673587
lhand -38.86713067098367 -36.01872754788391
lfingers 7.125019999999983
lthumb -11.807921568246092 -6.328167992082591
rfemur -25.383339845313973 1.7734099075281908 19.97917516347563
rtibia 47.77116253085364
rfoot -7.322974267040239 -9.88334580133736
rtoes -1.4714737616491558
lfemur -14.969344105419738 -0.3089289902914858 -17.144966887493247
ltibia 42.54661439232125
lfoot -6.038272892473064 -4.737720452036934
ltoes -6.226550265741317
